PathFileType	4	(X/Y/Z)	57_2_16_p1_0-396.trc
DataRate	CameraRate	NumFrames	NumMarkers	Units	OrigDataRate	OrigDataStartFrame	OrigNumFrames
60.0	60.0	5	27	m	60.0	347	397
Frame#	Time	RHip			RKnee			RAnkle			RBigToe			RSmallToe			RHeel			LHip			LKnee			LAnkle			LBigToe			LSmallToe			LHeel			Neck			Head			Nose			RShoulder			RElbow			RWrist			RThumb			RIndex			RPinky			LShoulder			LElbow			LWrist			LThumb			LIndex			LPinky			
		X1	Y1	Z1	X2	Y2	Z2	X3	Y3	Z3	X4	Y4	Z4	X5	Y5	Z5	X6	Y6	Z6	X7	Y7	Z7	X8	Y8	Z8	X9	Y9	Z9	X10	Y10	Z10	X11	Y11	Z11	X12	Y12	Z12	X13	Y13	Z13	X14	Y14	Z14	X15	Y15	Z15	X16	Y16	Z16	X17	Y17	Z17	X18	Y18	Z18	X19	Y19	Z19	X20	Y20	Z20	X21	Y21	Z21	X22	Y22	Z22	X23	Y23	Z23	X24	Y24	Z24	X25	Y25	Z25	X26	Y26	Z26	X27	Y27	Z27	
347	5.783333333333333	0.25470214419818293	0.5718691837694793	0.958088782436565	0.2564277462676271	0.6756303670151461	1.361320295652991	0.26104846026596684	0.8857061511468459	1.7695244347000616	0.2409864204637352	0.6828705591137098	1.8135538937817084	0.30314316470972197	0.7236722039381434	1.8091106755458908	0.2485718480850799	0.9800927288592206	1.813373506103193	0.046102340449445375	0.5616424238507359	0.9667271689046457	0.06305372281395961	0.677091303081385	1.3695531301586659	0.08401350296237439	0.874445454890899	1.7756113360789363	0.09913399194800208	0.6754585427070973	1.8090454732271182	0.044260718126162786	0.7156117372070987	1.8118962248867967	0.09761184982344585	0.9389772310574532	1.8278496002848401	0.13121275759637482	0.3593703603059349	0.48205585790139266	0.12399697131647056	0.2800183117737408	0.2594957023731159	0.11965170268515987	0.227593048779294	0.37999830368816684	0.2803755025276297	0.38945459113475306	0.5248427484493168	0.3370326954241097	0.3938238151344547	0.7874212621914655	0.2589613362396912	0.40838642511434564	1.0131117927736455	0.19519547362218798	0.3386312753562408	1.1088273813130258	0.2008415576933424	0.35144961925655904	1.1463381910870618	0.2234274336149086	0.42575817575065866	1.1274875863373879	-0.02938120537595966	0.37792443671868986	0.5432716655070277	-0.03018631646222158	0.4633774782433562	0.8024297434939334	0.03705696691476885	0.37716595197857783	1.0167640394493118	0.10170405148542785	0.32899346093539966	1.0917472991693469	0.08187544184896757	0.31987124971037517	1.1221683524685013	0.054529667302783254	0.36745487674776406	1.1233847233552772
348	5.8	0.25370549579559365	0.5950454474591996	0.9744410234810857	0.2582896381996047	0.679124975183377	1.3707501158627875	0.2568319656331617	0.8693846934022731	1.7658225091901143	0.2366829529062407	0.668682575321999	1.8097982838685973	0.30626910757068193	0.7083816946002522	1.8040955049643075	0.24821600856151216	0.9809614603722047	1.8092407245413145	0.044871218565785985	0.5848577124357635	0.9820687151803806	0.07581831665130233	0.6771935654347513	1.3689168734230381	0.08410344613500446	0.8745991465819247	1.775498894935651	0.0960356158605107	0.6611773194560989	1.8051518741393282	0.04437562439044079	0.7153434375748283	1.8118519896955818	0.09702853562574901	0.9406937748263285	1.8238107085417081	0.13201075850489147	0.3614445125474579	0.48935223528073635	0.12378114853407964	0.28002655398852794	0.25964406144608543	0.11949096080199048	0.2270783598005082	0.3803432840086113	0.28439793323015455	0.37940361004456313	0.5335628326395848	0.32445495041657446	0.4544230586331734	0.8012751346405362	0.26016075291949814	0.4152066158087188	1.0245919056426938	0.19687725405730402	0.36873937061935386	1.1204254345528664	0.20085393052543854	0.381401062583492	1.1607430879737735	0.23063455846889447	0.4584593500790921	1.1485621766706815	-0.03273800740297726	0.37840544921032054	0.5471876617557566	-0.029667511596488418	0.4653332764091371	0.806595515145888	0.040120448161211096	0.3941614426281515	1.0243774662841247	0.11303186670385951	0.35886690336488003	1.1006019089699615	0.09662726800618551	0.35107484070929007	1.1306664879379498	0.05824828054463461	0.4009419840868535	1.1319370230546622
349	5.816666666666666	0.2584930752984283	0.5824752785024184	0.9821139675238434	0.2592423085774302	0.6822405864502068	1.3750228511757532	0.2567519543110293	0.8695750498611349	1.7660500569534212	0.23665219980091468	0.6681704423507261	1.8097051009332106	0.30617710120869296	0.7076120103182177	1.8041765853406655	0.2495553432652237	0.984957232962451	1.8149796833741816	0.05410779841450812	0.5753994902851851	0.9897312551234534	0.07566280709872229	0.682769549712737	1.3740294463564242	0.08405811927568997	0.8747096632592687	1.7754822338485219	0.09507033749065628	0.6581361588004143	1.8008317581048172	0.04884808899386414	0.6997847666176853	1.80706593662104	0.09231069822657532	0.9372446335176293	1.8231068642659378	0.1319001942820276	0.362226810878328	0.4927806595090617	0.12385223784119456	0.2799957235164072	0.2597382335283926	0.12354184122806915	0.2154730632718257	0.3857572788280169	0.28112356575028524	0.39299683966664795	0.5392558802967149	0.3239564522112951	0.45279253483400667	0.8019324444621757	0.25904688919174146	0.44011729009398387	1.0258055111382693	0.18755782331940368	0.41276859203276806	1.1374260184740523	0.20043331556880675	0.42306910336846326	1.17358653900241	0.23837015499250208	0.4756369280254279	1.154474532560665	-0.02817758054145417	0.38229994318979016	0.5539859945991304	-0.029493135354680827	0.464879668464747	0.8074442705297444	0.04418393955545979	0.39622045705455833	1.027533927434696	0.11654137312596421	0.37141755133338655	1.1016368997463857	0.10487754872495841	0.37995687658311783	1.1367854447766998	0.0556440960541259	0.4161585458514327	1.137676009770438
350	5.833333333333333	0.258858997928055	0.6107665268423313	0.9826730123087974	0.261077084509081	0.6841056666394417	1.3749460206339135	0.2578997905469637	0.8721247367338034	1.770982014799756	0.23327339619985302	0.6553610126771412	1.8059827133904869	0.3024581501532294	0.6935860190743675	1.8004363280534041	0.25135403763309866	0.987238916524087	1.8247839394389065	0.05906161420711455	0.5762802051146466	0.9929258000584379	0.07549410985382499	0.6786980225629019	1.3733355580839735	0.08400249474969056	0.8744616870259047	1.7754840922393427	0.09493471417995203	0.6579284990886902	1.8007904501730394	0.04420766343430773	0.7151670658899939	1.811673036572258	0.09124343848815283	0.9384019502949532	1.8285259027461602	0.12858168203117618	0.35006320292805426	0.49485923313079005	0.12070152472257986	0.26928279557695367	0.26255742734619014	0.12379920637942088	0.21706721899482057	0.3889530261736518	0.2852008110835362	0.3821028714879662	0.5443075768525311	0.3211407225425798	0.469915027479199	0.8055338022533308	0.26032668522396174	0.4464699942668857	1.0371723171005534	0.19187145715224502	0.42995659777920153	1.1428853016274385	0.20406954769643776	0.4651529469122433	1.1769696583655975	0.23299792422222337	0.5052064481161902	1.1615530331566255	-0.03177875463053939	0.38044819554812187	0.5582562505745764	-0.028625049411681546	0.4675316499646294	0.8148296615576596	0.04706695581775783	0.41366507530029273	1.0389080870452145	0.12652546232445444	0.40876982305935	1.1068700843059815	0.12367434463679873	0.41049671571647955	1.1418123936805877	0.07059672899607446	0.4719656454892813	1.1497376914098425
351	5.85	0.2605156628890237	0.613175689912883	0.9947474298251592	0.2610826885217519	0.6894756549072593	1.3882275383979839	0.2578930721566842	0.8720309680465972	1.7709801820593865	0.23301822735888092	0.6546800487233361	1.8058513811792933	0.2977544616016389	0.6923875395622057	1.8007143400239511	0.25152712937982497	0.9873535946180086	1.8248293120982475	0.059819635120026596	0.5797268549463472	1.009593267599856	0.07181688330304832	0.7025342787354848	1.3899792135863123	0.0840262292530032	0.8743827377039243	1.7755395333071156	0.0948968940215924	0.658115487040155	1.8008144909989887	0.04413508542664771	0.7157286012414689	1.8117779259624431	0.09223822223847476	0.9359240352381006	1.8227581340225805	0.12840555535032702	0.3511183876361976	0.4984189634752964	0.11674601253996189	0.268465863690837	0.266559439056081	0.12461692234390631	0.2208324485088846	0.3987105407447209	0.2864124461153781	0.383351949761996	0.5478003294392868	0.32080493799939397	0.47120524745927933	0.8019002602063167	0.2574837531556107	0.46116167478874165	1.037706906002871	0.202984408153431	0.48628945301028037	1.1442010729575431	0.21120113710194893	0.5216835885798984	1.1744591865561826	0.23570264097416124	0.5450271358909241	1.161468743599308	-0.03146289889765343	0.38349350348893474	0.5655152965464338	-0.02881090638141638	0.46872804007876734	0.8187103650009819	0.05709207888001248	0.44157405510815984	1.0440074474594865	0.1345560995405081	0.4256107941706036	1.1078750965572077	0.12787383877387054	0.4495370048836749	1.1491917047513258	0.09399501266388072	0.5163043043488639	1.149369887993821
